<?xml version="1.0" encoding="UTF-8" standalone="no"?><!DOCTYPE svg PUBLIC "-//W3C//DTD SVG 1.1//EN" "http://www.w3.org/Graphics/SVG/1.1/DTD/svg11.dtd"><svg width="100%" height="100%" viewBox="0 0 255 200" version="1.1" xmlns="http://www.w3.org/2000/svg" xmlns:xlink="http://www.w3.org/1999/xlink" xml:space="preserve" style="fill-rule:evenodd;clip-rule:evenodd;stroke-linecap:round;stroke-linejoin:round;stroke-miterlimit:1.41421;"><ellipse cx="197.426" cy="65.317" rx="3.772" ry="40.431" style="fill:#c8d6db;stroke-width:1.5px;stroke:#000;"/><ellipse cx="194.324" cy="64.837" rx="4.234" ry="40.431" style="fill:#648b99;stroke-width:1.5px;stroke:#000;"/><g><path d="M85.935,33.336l-5.982,7.255l76.659,63.2l5.982,-7.256l-76.659,-63.199Z" style="fill:#666;stroke-width:1.5px;stroke:#000;"/><path d="M76.351,31.528c2.475,-3.003 6.923,-3.431 9.926,-0.955c3.003,2.475 3.431,6.923 0.955,9.926c-2.475,3.003 -6.923,3.431 -9.926,0.955c-3.003,-2.475 -3.431,-6.923 -0.955,-9.926Z" style="fill:#666;stroke-width:1.5px;stroke:#000;"/><path d="M80.361,34.834c0.651,-0.789 1.82,-0.902 2.61,-0.251c0.789,0.651 0.901,1.82 0.251,2.609c-0.651,0.79 -1.82,0.902 -2.61,0.252c-0.789,-0.651 -0.902,-1.82 -0.251,-2.61Z" style="fill:#666;stroke-width:1.5px;stroke:#000;"/></g><g><path d="M86.605,31.045l-5.982,7.255l76.659,63.2l5.982,-7.255l-76.659,-63.2Z" style="fill:#baccd2;stroke-width:1.5px;stroke:#000;"/><path d="M77.021,29.237c2.475,-3.003 6.923,-3.431 9.926,-0.955c3.003,2.475 3.431,6.923 0.956,9.926c-2.476,3.003 -6.924,3.431 -9.927,0.956c-3.003,-2.476 -3.431,-6.924 -0.955,-9.927Z" style="fill:#baccd2;stroke-width:1.5px;stroke:#000;"/><path d="M81.031,32.544c0.651,-0.79 1.82,-0.902 2.61,-0.252c0.789,0.651 0.902,1.82 0.251,2.61c-0.651,0.789 -1.82,0.902 -2.609,0.251c-0.79,-0.651 -0.902,-1.82 -0.252,-2.609Z" style="fill:#000;stroke-width:1.5px;stroke:#000;"/></g><g><path d="M117.519,104.505l3.589,18.405c0,0 3.961,-11.253 69.872,5.033c0,0 -1.215,-2.273 4.128,-14.25c5.344,-11.976 -2.797,-17.463 -16.17,-14.46c-13.372,3.003 -22.598,-21.587 -36.666,-20.133c-14.067,1.455 -9.584,9.832 -24.753,25.405Z" style="fill:#91adb7;stroke-width:2.5px;stroke:#000;"/><path d="M116.284,139.157l-20.506,18.966c0,0 98.475,-0.662 111.919,1.59c13.444,2.253 -13.214,-13.176 -13.214,-13.176c0,0 -23.144,-21.035 -78.199,-7.38Z" style="fill:#91adb7;stroke-width:2.5px;stroke:#000;"/><path d="M136.739,139.315l-7.692,17.467l-29.989,0.164l16.814,-15.961l20.867,-1.67Z" style="fill:#666;stroke-width:0.1px;stroke:#000;"/><path d="M121.5,118.085c0,0 7.346,-8.723 15.112,-26.616c7.767,-17.893 -3.555,26.922 -5.293,37.292c-1.737,10.37 -4.29,1.837 -9.819,-10.676Z" style="fill:#666;"/><path d="M116.91,125.747l-0.736,15.774c0,0 25.213,-10.078 76.209,4.187l0.343,-17.269c0,0 -68.218,-21.439 -75.816,-2.692Z" style="fill:#a3b9b4;stroke-width:2.5px;stroke:#000;"/><path d="M144.061,90.16l0.056,0.015l0.052,0.022l0.049,0.03l0.044,0.036l0.039,0.042l0.032,0.047l0.025,0.052l0.017,0.054l0.01,0.056l0.005,0.049l0.013,0.141l0.01,0.103l0.011,0.125l0.013,0.145l0.015,0.164l0.016,0.184l0.017,0.202l0.018,0.22l0.019,0.236l0.02,0.253l0.021,0.269l0.021,0.284l0.022,0.298l0.011,0.154l0.011,0.157l0.011,0.161l0.011,0.164l0.011,0.167l0.011,0.17l0.011,0.173l0.011,0.175l0.011,0.179l0.01,0.181l0.011,0.183l0.011,0.186l0.01,0.189l0.011,0.191l0.01,0.193l0.01,0.195l0.01,0.197l0.009,0.2l0.009,0.201l0.01,0.203l0.008,0.205l0.009,0.206l0.008,0.208l0.008,0.209l0.008,0.211l0.007,0.212l0.007,0.214l0.006,0.214l0.006,0.216l0.006,0.216l0.005,0.218l0.005,0.218l0.004,0.219l0.004,0.22l0.003,0.22l0.003,0.22l0.003,0.222l0.001,0.221l0.001,0.222l0.001,0.221l0,0.222l-0.001,0.222l-0.001,0.222l-0.002,0.221l-0.003,0.221l-0.003,0.221l-0.002,0.111l-0.002,0.11l-0.002,0.11l-0.003,0.11l-0.002,0.11l-0.003,0.109l-0.003,0.11l-0.004,0.109l-0.003,0.109l-0.004,0.109l-0.003,0.108l-0.004,0.109l-0.005,0.108l-0.004,0.108l-0.005,0.108l-0.005,0.107l-0.005,0.107l-0.005,0.107l-0.005,0.107l-0.006,0.106l-0.006,0.106l-0.006,0.106l-0.006,0.105l-0.007,0.105l-0.007,0.105l-0.007,0.104l-0.007,0.104l-0.008,0.103l-0.008,0.103l-0.008,0.103l-0.008,0.102l-0.008,0.102l-0.009,0.102l-0.009,0.101l-0.009,0.1l-0.01,0.1l-0.01,0.1l-0.01,0.099l-0.01,0.098l-0.01,0.099l-0.011,0.097l-0.011,0.097l-0.012,0.097l-0.011,0.096l-0.012,0.095l-0.012,0.095l-0.013,0.095l-0.013,0.093l-0.013,0.093l-0.013,0.093l-0.014,0.092l-0.013,0.091l-0.015,0.091l-0.014,0.09l-0.015,0.09l-0.015,0.088l-0.016,0.088l-0.015,0.088l-0.016,0.087l-0.017,0.086l-0.016,0.085l-0.017,0.085l-0.018,0.083l-0.018,0.084l-0.018,0.082l-0.018,0.082l-0.019,0.081l-0.019,0.08l-0.019,0.079l-0.02,0.079l-0.02,0.078l-0.02,0.077l-0.021,0.076l-0.022,0.076l-0.021,0.074l-0.022,0.074l-0.022,0.073l-0.023,0.072l-0.023,0.072l-0.024,0.07l-0.024,0.07l-0.024,0.068l-0.025,0.068l-0.025,0.067l-0.026,0.066l-0.026,0.065l-0.013,0.032l-0.014,0.033l-0.013,0.031l-0.014,0.032l-0.014,0.031l-0.013,0.031l-0.014,0.031l-0.014,0.031l-0.015,0.03l-0.014,0.03l-0.014,0.03l-0.015,0.03l-0.015,0.029l-0.014,0.029l-0.015,0.029l-0.015,0.029l-0.016,0.029l-0.015,0.028l-0.016,0.028l-0.015,0.028l-0.016,0.027l-0.016,0.027l-0.016,0.027l-0.016,0.027l-0.017,0.027l-0.016,0.026l-0.017,0.026l-0.016,0.024l-0.034,0.045l-0.041,0.041l-0.046,0.033l-0.05,0.027l-0.054,0.02l-0.056,0.012l-0.057,0.003l-0.057,-0.004l-0.055,-0.013l-0.053,-0.02l-0.05,-0.028l-0.046,-0.035l-0.04,-0.04l-0.034,-0.046l-0.027,-0.051l-0.019,-0.053l-0.012,-0.056l-0.003,-0.057l0.004,-0.057l0.013,-0.056l0.02,-0.053l0.028,-0.05l0.014,-0.021l0.013,-0.02l0.013,-0.021l0.012,-0.021l0.013,-0.021l0.013,-0.021l0.013,-0.022l0.012,-0.022l0.013,-0.022l0.013,-0.023l0.012,-0.023l0.013,-0.024l0.012,-0.023l0.013,-0.024l0.012,-0.025l0.012,-0.024l0.012,-0.025l0.013,-0.025l0.012,-0.026l0.012,-0.026l0.012,-0.026l0.012,-0.026l0.012,-0.027l0.011,-0.027l0.012,-0.027l0.012,-0.028l0.011,-0.027l0.012,-0.028l0.023,-0.058l0.023,-0.058l0.022,-0.06l0.022,-0.06l0.022,-0.062l0.022,-0.062l0.021,-0.064l0.021,-0.065l0.021,-0.065l0.02,-0.067l0.02,-0.068l0.02,-0.069l0.02,-0.069l0.019,-0.071l0.019,-0.072l0.019,-0.072l0.018,-0.074l0.019,-0.074l0.017,-0.076l0.018,-0.076l0.017,-0.077l0.017,-0.078l0.017,-0.079l0.017,-0.079l0.016,-0.081l0.016,-0.081l0.015,-0.082l0.016,-0.083l0.015,-0.084l0.015,-0.084l0.014,-0.085l0.014,-0.086l0.014,-0.087l0.014,-0.087l0.013,-0.088l0.013,-0.089l0.013,-0.089l0.013,-0.09l0.012,-0.091l0.012,-0.091l0.012,-0.092l0.012,-0.093l0.011,-0.093l0.011,-0.094l0.011,-0.094l0.01,-0.095l0.011,-0.096l0.01,-0.096l0.009,-0.096l0.01,-0.098l0.009,-0.097l0.009,-0.099l0.009,-0.098l0.009,-0.099l0.008,-0.1l0.008,-0.1l0.008,-0.101l0.007,-0.101l0.008,-0.101l0.007,-0.102l0.007,-0.102l0.007,-0.103l0.006,-0.103l0.006,-0.104l0.006,-0.104l0.006,-0.104l0.006,-0.104l0.005,-0.105l0.005,-0.105l0.005,-0.106l0.005,-0.106l0.005,-0.106l0.004,-0.106l0.004,-0.107l0.004,-0.107l0.004,-0.107l0.003,-0.107l0.004,-0.108l0.003,-0.107l0.003,-0.108l0.003,-0.109l0.002,-0.108l0.003,-0.108l0.002,-0.109l0.002,-0.109l0.002,-0.109l0.003,-0.218l0.003,-0.219l0.002,-0.219l0.001,-0.22l0.001,-0.219l0,-0.22l-0.001,-0.219l-0.001,-0.22l-0.001,-0.219l-0.003,-0.219l-0.002,-0.219l-0.004,-0.218l-0.004,-0.218l-0.004,-0.217l-0.005,-0.217l-0.005,-0.216l-0.005,-0.215l-0.006,-0.214l-0.007,-0.212l-0.007,-0.212l-0.007,-0.211l-0.007,-0.209l-0.008,-0.208l-0.008,-0.207l-0.009,-0.205l-0.009,-0.203l-0.009,-0.202l-0.009,-0.2l-0.01,-0.198l-0.009,-0.196l-0.01,-0.194l-0.01,-0.192l-0.011,-0.189l-0.01,-0.188l-0.01,-0.185l-0.011,-0.182l-0.011,-0.18l-0.011,-0.178l-0.011,-0.174l-0.011,-0.172l-0.011,-0.169l-0.011,-0.166l-0.011,-0.163l-0.01,-0.16l-0.011,-0.156l-0.011,-0.153l-0.022,-0.296l-0.021,-0.282l-0.02,-0.267l-0.02,-0.252l-0.019,-0.235l-0.018,-0.218l-0.017,-0.201l-0.016,-0.182l-0.015,-0.163l-0.013,-0.144l-0.011,-0.123l-0.009,-0.102l-0.014,-0.139l-0.004,-0.048l-0.002,-0.057l0.007,-0.056l0.014,-0.056l0.023,-0.052l0.029,-0.049l0.037,-0.044l0.042,-0.039l0.047,-0.032l0.051,-0.025l0.054,-0.017l0.057,-0.01l0.057,-0.001l0.056,0.006Z" style="fill:#000;"/></g><g><path d="M84.33,38.045l-8.707,-3.55l-24.587,60.306l8.708,3.55l24.586,-60.306Z" style="fill:#666;stroke-width:1.5px;stroke:#000;"/><path d="M83.202,28.357c3.604,1.47 5.337,5.588 3.868,9.192c-1.469,3.604 -5.588,5.337 -9.192,3.868c-3.604,-1.47 -5.337,-5.588 -3.867,-9.192c1.469,-3.604 5.588,-5.337 9.191,-3.868Z" style="fill:#666;stroke-width:1.5px;stroke:#000;"/><path d="M81.24,33.171c0.947,0.386 1.403,1.469 1.017,2.416c-0.386,0.947 -1.469,1.403 -2.416,1.017c-0.948,-0.387 -1.403,-1.469 -1.017,-2.417c0.386,-0.947 1.469,-1.403 2.416,-1.016Z" style="fill:#666;stroke-width:1.5px;stroke:#000;"/></g><g><path d="M86.407,37.696l-8.707,-3.55l-24.058,59.01l8.707,3.55l24.058,-59.01Z" style="fill:#baccd2;stroke-width:1.5px;stroke:#000;"/><path d="M85.28,28.008c3.604,1.469 5.337,5.588 3.867,9.192c-1.469,3.603 -5.588,5.336 -9.191,3.867c-3.604,-1.469 -5.337,-5.588 -3.868,-9.192c1.469,-3.603 5.588,-5.336 9.192,-3.867Z" style="fill:#baccd2;stroke-width:1.5px;stroke:#000;"/><path d="M83.317,32.821c0.948,0.386 1.403,1.469 1.017,2.416c-0.386,0.948 -1.469,1.403 -2.416,1.017c-0.947,-0.386 -1.403,-1.469 -1.017,-2.416c0.386,-0.948 1.469,-1.403 2.416,-1.017Z" style="fill:#000;stroke-width:1.5px;stroke:#000;"/></g><g><path d="M52.711,91.911c4.773,-2.069 9.795,-1.102 11.21,2.16c1.414,3.261 -1.312,7.589 -6.085,9.659c-4.772,2.07 -9.795,1.102 -11.209,-2.159c-1.415,-3.262 1.312,-7.59 6.084,-9.66Z" style="fill:url(#_Radial1);stroke-width:1.5px;stroke:#000;"/><path d="M76.566,106.5l-46.773,9.384c0,0 -7.638,5.095 0,12.513l49.751,-9.383l-2.978,-12.514Z" style="fill:#000;stroke-width:1.5px;stroke:#000;"/><path d="M39.512,117.32c0,0 1.47,-17.41 16.453,-18.091c5.38,-0.244 14.152,2.63 14.374,8.403c0.234,6.12 -3.765,9.197 -5.547,9.451c-1.782,0.255 3.83,1.952 -0.624,9.421c-3.06,5.133 -7.447,5.515 -9.391,4.143c-1.399,-0.987 -2.251,-0.713 -3.801,0.075c-2.491,1.266 -6.835,-0.025 -7.777,-7.927c0,0 -2.601,1.558 -3.704,5.378c-1.104,3.819 -2.461,5.292 -4.668,5.207c-2.207,-0.085 -4.075,-2.916 -2.207,-7.754c1.867,-4.838 3.994,-7.784 6.892,-8.306Z" style="fill:url(#_Radial2);stroke-width:1.5px;stroke:#000;"/><ellipse cx="66.269" cy="114.912" rx="6" ry="6.655" style="fill:#000;stroke-width:1.5px;stroke:#000;"/><path d="M73.864,107.404l-9.678,1.309l3.055,7.496l6.623,-8.805Z" style="fill:#000;stroke-width:1.5px;stroke:#000;"/><path d="M53.541,129.849c0,0 -3.086,-3.82 -3.34,-7.299" style="fill:none;stroke-width:1.5px;stroke:#000;"/><path d="M46.302,104.584c0,0 -1.866,1.048 -2.121,4.188c-0.256,3.141 1.357,-2.49 2.121,-4.188Z" style="fill:none;stroke-width:1.5px;stroke:#000;"/><path d="M47.748,103.777c0,0 -1.635,1.382 -1.291,4.514c0.344,3.132 0.862,-2.702 1.291,-4.514Z" style="fill:none;stroke-width:1.5px;stroke:#000;"/><path d="M49.387,103.524c0,0 -1.417,1.604 -0.623,4.654c0.794,3.049 0.461,-2.799 0.623,-4.654Z" style="fill:none;stroke-width:1.5px;stroke:#000;"/><ellipse cx="106.669" cy="109.411" rx="28.04" ry="35.023" style="fill:#ffdab6;stroke-width:1.5px;stroke:#000;"/><ellipse cx="102.678" cy="109.411" rx="25.531" ry="35.023" style="fill:url(#_Linear3);stroke-width:1.5px;stroke:#000;"/><ellipse cx="105.518" cy="108.92" rx="22.367" ry="34.149" style="fill:#ceefff;stroke-width:1.5px;stroke:#000;"/><ellipse cx="95.631" cy="93.396" rx="6.873" ry="9.383" style="fill:#fff;"/><path d="M120.115,121.799c2.053,1.282 1.117,6.488 -2.087,11.62c-3.205,5.131 -7.473,8.257 -9.526,6.975c-2.052,-1.282 -1.117,-6.488 2.088,-11.62c3.205,-5.131 7.473,-8.257 9.525,-6.975Z" style="fill:#92c8ff;"/></g><defs><radialGradient id="_Radial1" cx="0" cy="0" r="1" gradientUnits="userSpaceOnUse" gradientTransform="matrix(8.6471,-3.74997,2.5627,5.90935,58.9936,94.6325)"><stop offset="0%" style="stop-color:#fff;stop-opacity:1"/><stop offset="50%" style="stop-color:#dfe0d0;stop-opacity:1"/><stop offset="100%" style="stop-color:#bfc1a0;stop-opacity:1"/></radialGradient><radialGradient id="_Radial2" cx="0" cy="0" r="1" gradientUnits="userSpaceOnUse" gradientTransform="matrix(19.242,0,0,17.077,51.0965,116.306)"><stop offset="0%" style="stop-color:#fff;stop-opacity:1"/><stop offset="50%" style="stop-color:#dfe0d0;stop-opacity:1"/><stop offset="100%" style="stop-color:#bfc1a0;stop-opacity:1"/></radialGradient><linearGradient id="_Linear3" x1="0" y1="0" x2="1" y2="0" gradientUnits="userSpaceOnUse" gradientTransform="matrix(0.435918,69.1719,-69.1719,0.435918,99.842,74.9348)"><stop offset="0%" style="stop-color:#f93;stop-opacity:1"/><stop offset="100%" style="stop-color:#fc3;stop-opacity:1"/></linearGradient></defs></svg>